<svg enable-background="new 0 0 320 78" viewBox="0 0 320 78" xmlns="http://www.w3.org/2000/svg"><path clip-rule="evenodd" d="m63.62 1.18-8.67 26.54-36.69-26.54z" fill="#34495e" fill-rule="evenodd"/><path clip-rule="evenodd" d="m2.19 50.26 22.68-16.41 14.02 42.95z" fill="#34495e" fill-rule="evenodd"/><g fill="#41b883"><path clip-rule="evenodd" d="m15.02 3.49 22.67 16.4-36.69 26.55z" fill-rule="evenodd"/><path clip-rule="evenodd" d="m42.99 76.82-8.66-26.54 45.36-.01z" fill-rule="evenodd"/><path d="m80.92 46.53-14.02-42.95-14.01 42.95z"/><path d="m91.84 21.63h5.74l7.94 22.2h.16l8.02-22.2h5.54l-11.57 28.84h-4.44z"/><path d="m137.87 50.47h-4.64v-3.14h-.08c-.43.98-1.19 1.84-2.26 2.59s-2.34 1.12-3.81 1.12c-1.28 0-2.37-.22-3.28-.67s-1.66-1.04-2.24-1.77-1.01-1.57-1.28-2.53c-.27-.95-.41-1.93-.41-2.93v-12.22h4.89v10.83c0 .57.04 1.17.12 1.79s.26 1.19.53 1.69.64.92 1.12 1.24c.47.33 1.11.49 1.89.49.76 0 1.43-.16 2.02-.47.58-.31 1.06-.71 1.43-1.2s.64-1.05.83-1.69.29-1.28.29-1.93v-10.75h4.89v19.55z"/><path d="m162.13 40.94v.65c0 .22-.01.43-.04.65h-14.87c.05.71.24 1.35.55 1.93s.73 1.09 1.24 1.51c.52.42 1.1.75 1.75 1 .65.24 1.33.37 2.04.37 1.22 0 2.25-.22 3.1-.67.84-.45 1.53-1.07 2.08-1.85l3.26 2.61c-1.93 2.61-4.72 3.91-8.39 3.91-1.52 0-2.92-.24-4.2-.71s-2.38-1.15-3.32-2.02-1.67-1.93-2.2-3.2c-.53-1.26-.79-2.69-.79-4.3 0-1.57.26-3.01.79-4.3s1.26-2.39 2.18-3.3 2.02-1.62 3.28-2.12 2.63-.75 4.09-.75c1.36 0 2.61.22 3.77.67 1.15.45 2.15 1.11 2.99 2 .84.88 1.5 1.98 1.98 3.3.47 1.31.71 2.85.71 4.62zm-4.89-2.2c0-.62-.09-1.22-.26-1.79-.18-.57-.46-1.07-.83-1.51-.38-.43-.86-.78-1.45-1.04-.58-.26-1.27-.39-2.06-.39-1.47 0-2.71.44-3.73 1.32s-1.58 2.02-1.69 3.4h10.02z"/></g><g fill="#34495e"><path d="m201.07 39.88c0 1.74-.3 3.31-.9 4.7-.6 1.4-1.41 2.59-2.44 3.56-1.03.98-2.25 1.73-3.67 2.26-1.41.53-2.95.79-4.6.79-1.66 0-3.19-.26-4.6-.79s-2.64-1.28-3.69-2.26-1.86-2.16-2.44-3.56-.88-2.97-.88-4.7v-18.25h5.13v18.04c0 .84.11 1.68.33 2.5.22.83.58 1.57 1.08 2.22s1.17 1.18 2 1.59 1.85.61 3.08.61c1.22 0 2.25-.2 3.07-.61.83-.41 1.49-.94 2-1.59.5-.65.86-1.39 1.08-2.22s.33-1.66.33-2.5v-18.04h5.13v18.25z"/><path d="m221.3 27.66c-.54-.71-1.31-1.3-2.3-1.77s-1.99-.71-2.99-.71c-.6 0-1.2.08-1.79.22-.6.15-1.14.38-1.63.69s-.89.72-1.2 1.22-.47 1.11-.47 1.81c0 .65.14 1.21.41 1.67s.64.86 1.12 1.18c.47.33 1.05.61 1.73.86.68.24 1.43.49 2.24.73.92.3 1.88.64 2.87 1.02s1.9.88 2.73 1.51 1.51 1.41 2.04 2.36.79 2.13.79 3.54c0 1.55-.29 2.9-.86 4.05s-1.33 2.11-2.28 2.87-2.06 1.33-3.34 1.71-2.62.57-4.03.57c-1.87 0-3.71-.35-5.5-1.04s-3.26-1.72-4.4-3.08l3.67-3.42c.71.98 1.65 1.75 2.83 2.32s2.34.86 3.48.86c.6 0 1.21-.07 1.83-.22s1.19-.4 1.69-.75.91-.79 1.22-1.32.47-1.19.47-1.98c0-.76-.18-1.39-.53-1.89s-.83-.94-1.43-1.3c-.6-.37-1.3-.69-2.12-.96-.81-.27-1.67-.56-2.57-.86-.87-.27-1.74-.6-2.61-.98s-1.65-.88-2.34-1.51c-.69-.62-1.26-1.39-1.69-2.3s-.65-2.04-.65-3.4c0-1.47.31-2.73.92-3.79s1.41-1.93 2.4-2.63c.99-.69 2.12-1.21 3.38-1.55s2.55-.51 3.85-.51c1.47 0 2.95.26 4.46.77 1.51.52 2.82 1.29 3.93 2.32z"/><path d="m227.07 21.63h5.62l5.58 21.18h.08l6.35-21.18h5.29l6.23 21.18h.08l5.7-21.18h5.46l-8.43 28.84h-4.97l-6.76-21.63h-.08l-6.76 21.63h-4.97z"/><path d="m270.57 21.63h10.22c1.87 0 3.76.24 5.66.73s3.61 1.3 5.13 2.42c1.52 1.13 2.76 2.61 3.71 4.44s1.43 4.11 1.43 6.82c0 2.53-.48 4.7-1.43 6.52s-2.19 3.31-3.71 4.48-3.23 2.03-5.13 2.59-3.79.83-5.66.83h-10.22zm9.41 24.36c1.33 0 2.66-.16 3.99-.47s2.53-.84 3.6-1.59 1.95-1.76 2.63-3.03c.68-1.28 1.02-2.89 1.02-4.85 0-2.06-.34-3.75-1.02-5.05s-1.55-2.32-2.63-3.05c-1.07-.73-2.27-1.24-3.6-1.51s-2.66-.41-3.99-.41h-4.28v19.96z"/><path d="m315.46 27.66c-.54-.71-1.31-1.3-2.3-1.77s-1.99-.71-2.99-.71c-.6 0-1.2.08-1.79.22-.6.15-1.14.38-1.63.69s-.89.72-1.2 1.22-.47 1.11-.47 1.81c0 .65.14 1.21.41 1.67s.64.86 1.12 1.18c.47.33 1.05.61 1.73.86.68.24 1.43.49 2.24.73.92.3 1.88.64 2.87 1.02s1.9.88 2.73 1.51 1.51 1.41 2.04 2.36c.52.95.78 2.14.78 3.55 0 1.55-.29 2.9-.86 4.05s-1.33 2.11-2.28 2.87-2.06 1.33-3.34 1.71-2.62.57-4.03.57c-1.87 0-3.71-.35-5.5-1.04s-3.26-1.72-4.4-3.08l3.67-3.42c.71.98 1.65 1.75 2.83 2.32s2.34.86 3.48.86c.6 0 1.21-.07 1.83-.22s1.19-.4 1.69-.75.91-.79 1.22-1.32.47-1.19.47-1.98c0-.76-.18-1.39-.53-1.89s-.83-.94-1.43-1.3c-.6-.37-1.3-.69-2.12-.96-.81-.27-1.67-.56-2.57-.86-.87-.27-1.74-.6-2.61-.98s-1.65-.88-2.34-1.51c-.69-.62-1.26-1.39-1.69-2.3s-.65-2.04-.65-3.4c0-1.47.31-2.73.92-3.79s1.41-1.93 2.4-2.63c.99-.69 2.12-1.21 3.38-1.55s2.55-.51 3.85-.51c1.47 0 2.95.26 4.46.77 1.51.52 2.82 1.29 3.93 2.32z"/></g></svg>